<?xml version="1.0" encoding="UTF-8" standalone="no"?>
<!-- Created with Inkscape (http://www.inkscape.org/) -->

<svg
   version="1.1"
   id="svg1"
   width="1536"
   height="1024"
   viewBox="0 0 1536 1024"
   xmlns="http://www.w3.org/2000/svg"
   xmlns:svg="http://www.w3.org/2000/svg">
  <defs
     id="defs1" />
  <g
     id="g1">
    <path
       style="fill:none;stroke:#606364"
       d="m 732.64407,356.15042 c -21.9494,-22.00995 -39.18866,-61.57184 -32.33179,-93 8.16968,-37.44537 56.4054,-48.43097 85.33179,-27.95679 32.11945,22.73419 19.23157,66.20166 4.75232,94.95679 -3.21936,6.39355 -6.85309,12.43213 -11.36731,18 -1.67822,2.06989 -5.17987,4.97845 -4.75464,7.96063 0.45966,3.22333 5.01972,5.65924 7.36963,7.40973 7.30176,5.43915 14.76105,11.74024 23,15.71991 8.85956,4.27942 21.32471,-11.91467 28,-16.96063 21.125,-15.96869 43.34045,-26.12964 70,-26.12964 m -157,-94.4707 c 5.03741,-1.15601 11.17255,-0.89313 16,0.93829 31.5484,11.96881 23.13434,50.30225 11.24304,73.53241 -3.50323,6.84369 -10.89136,21.01038 -19.24304,22.46143 -10.14587,1.76275 -18.18927,-16.33771 -21.75153,-23.46143 -11.02826,-22.05383 -19.82556,-65.76538 13.75153,-73.4707 m -12,216.4707 c -11.70496,-10.34869 -22.51654,-23.39398 -31.70605,-36 -3.17206,-4.35138 -8.64716,-15.63818 -13.62269,-17.64661 -2.8034,-1.13165 -6.89788,1.01923 -9.67126,1.63269 -7.63525,1.68891 -15.24744,2.81318 -23,3.7284 -23.27502,2.7478 -54.14264,-0.19239 -71.99615,-16.80786 -17.26014,-16.06324 -14.96607,-42.08551 6.99615,-52.91126 15.09351,-7.43994 36.53589,-4.61719 51,3.00464 m 263,-6 c 18.72284,2.76508 34.22455,21.96881 27.45142,41 -3.24176,9.1087 -10.5326,15.56415 -18.45142,20.65198 -17.1897,11.04431 -42.04785,13.77691 -62,10.9198 -7.67426,-1.09894 -15.48804,-2.27893 -23,-4.20142 -3.09155,-0.7912 -7.6582,-3.19183 -10.82947,-2.01697 -5.7699,2.13758 -11.35083,12.90143 -15.05401,17.64661 -10.71155,13.7254 -25.18708,24.90417 -35.11652,39 14.07404,9.48682 28.82849,17.66113 44,25.24689 5.2467,2.62335 12.06421,7.72528 18,8.15283 8.24536,0.59387 21.50714,-7.7627 29,-11.16901 19.29608,-8.77209 39.14166,-16.75274 59,-24.18054 67.43494,-25.22327 139.41383,-44.50189 210.99993,-25.20142 28.4789,7.67829 59.4529,21.3844 78.1157,45.15125 10.7948,13.74701 18.6653,27.78961 22.4599,45 1.5293,6.9361 0.4397,14.28552 2.4244,21 10.7803,-5.65784 24.0632,-6.97546 36,-8.16901 33.2903,-3.32855 68.1965,2.45575 97,20.23383 19.4481,12.00372 35.1252,31.42493 57,39.23688 8.2249,2.93731 21.0199,5.13678 28.9993,0.46991 5.9559,-3.48352 12.6832,-14.90882 1.9961,-17.51545 -5.4435,-1.32769 -12.0728,3.69086 -17.9954,3.74384 m -788.99993,-237 32,20.18054 20,16.81946 1,-1 2,-1 m -40,14 c -10.96289,0.22626 -21.98907,2.03143 -33,0.71448 -12.01782,-1.43738 -25.83441,-4.15967 -34.67126,-13.1543 -7.37452,-7.50622 -8.26923,-20.23798 0.71447,-26.91125 26.75556,-19.87464 71.85474,11.91217 86.95679,33.35107 m 143,-2 c 18.33459,-16.01764 38.8811,-35.87329 65,-35.99921 8.39514,-0.0405 17.34125,0.0688 23.89508,6.21296 9.55463,8.95733 4.12012,22.34625 -4.89587,29.25384 -13.45948,10.31195 -33.95038,9.53241 -49.99921,9.53241 m -128,-37 -27,21 m 94,19 -31.01465,38 -12.98535,11.36884 -13.99921,-11.36884 -32.00079,-41 32,-20.57867 13,-7.95374 14,8.39117 30,19.14124 m 26,-6 c 10.65936,4.08032 22.62311,5.99872 34,6 m -178,-4 h 1 m -16,3 13,-2 m 30,4 h 1 m -128,225 c -80.54785,22.85803 -170.38525,35.06079 -249,-1.30945 -12.59467,-5.82678 -25.06729,-14.01587 -35,-23.7052 -14.66296,-14.30365 -21.51233,-27.0755 -42,-33.64123 -26.23509,-8.4076 -91.87405,-15.01331 -89.95911,28.65588 0.57354,13.0791 11.62514,23.70898 23.95911,26.76001 6.13406,1.51733 14.47417,2.24622 17.54706,-4.77856 5.66998,-12.9618 -12.22339,-6.37452 -16.5463,-7.43055 -6.02452,-1.47168 -8.72043,-8.31366 -5.25848,-13.45752 12.75119,-18.94629 46.26517,-0.65619 45.79475,18.90662 -0.55916,23.25305 -28.79365,32.005 -47.53703,26.22607 -9.12407,-2.81311 -15.70062,-8.51379 -23,-14.22607 -16.70978,26.29224 -49.90991,17.30676 -60.000006,-9 -17.290807,9.21802 -41.095868,12.31702 -57.999996,0.21143 -23.66644,-16.94831 -16.154283,-48.73877 9.999999,-58.12116 11.564636,-4.14862 35.267319,-1.90106 31.605705,15.90973 -3.18042,15.47021 -14.90908,8.71045 -24.605705,6.93677 -4.61158,-0.84363 -8.884583,3.58423 -8.677471,8.06396 0.91473,19.78516 34.9034,11.0232 44.677471,5.68677 18.465873,-10.08191 32.649433,-26.73486 51.000003,-37.26001 38.43845,-22.04675 86.12775,-24.81641 128,-11.42749 2.15192,-7.28021 1.47208,-15.44775 3.23535,-23 3.5481,-15.19684 11.08692,-29.04401 21.08948,-41 16.28397,-19.46411 39.24621,-32.31555 62.67517,-41.05017 68.6701,-25.60108 146.05976,-10.37208 212,16.49921 71.72866,29.23013 47.08728,19.95501 71,28.97454 8.28894,3.12647 20.12518,10.31079 29,10.30793 6.54303,-0.002 14.31329,-5.64124 20,-8.48462 15.04303,-7.52155 29.33887,-16.08435 44,-24.24689 m 220,44 -32,14.75311 -15,7.32331 -13,-4.76007 -36,-16.31635 c 21.58044,-11.4931 46.8761,-19.13147 70,-27.00305 59.4827,-20.24841 125.50163,-37.38196 187.99993,-21.36731 38.5392,9.8753 84.9746,36.33288 86.9607,81.37036 1.661,37.66571 -38.4873,59.86401 -69.9607,68.99927 -74.4457,21.60803 -152.4052,6.01031 -224.99993,-14.99927 m -278,-16 c -16.48047,6.39398 -32.16302,14.99371 -49,20.48145 -63.1828,20.5935 -141.3912,31.60192 -206,12.23846 -36.35828,-10.89667 -81.74045,-34.53522 -73.53549,-79.71991 7.86059,-43.28833 54.12018,-67.34137 93.53549,-74.25 60.87839,-10.67059 120.47302,3.41638 178,23.32794 24.12891,8.35163 47.44617,19.95178 72,26.92206 m 165,-2 -40,18.19983 -20,6.66357 -22,-7.58252 -38,-16.28088 43,-24.44904 18,-9.85498 17,9.10419 42,24.19983 m -443,-16 c 13.53882,-7.13422 29.06332,-8.74243 44,-10.16974 42.90137,-4.09949 87.68689,8.09729 127,24.59412 13.23651,5.55438 26.15869,11.40185 39,17.82251 5.14398,2.57196 12.26862,8.23358 18,8.71374 4.6142,0.3866 10.00348,-3.76837 14,-5.70215 10.60767,-5.13263 21.8114,-9.31176 32,-15.25848 m 315,-4 c 52.10853,-20.10095 115.82343,-38.94141 170.99993,-19.65509 37.8806,13.24072 60.4347,55.34772 30.8156,88.65124 -5.4393,6.11579 -12.5646,11.01886 -19.8156,14.74457 -49.924,25.65235 -118.9841,8.29785 -167.99993,-10.94366 -13.70435,-5.37976 -27.67493,-10.29242 -41,-16.57794 -6.1427,-2.89746 -15.08051,-9.05439 -22,-9.08643 -4.73914,-0.022 -10.14948,4.51209 -14,6.91748 -9.49792,5.93311 -19.65259,10.78418 -29,16.94983 l 42,17 m -274,-16 c 0.41272,-3.70679 -5.16846,-5.82123 -8,-7.63196 -6.89819,-4.41125 -22.60681,-19.37292 -31,-16.9082 -18.76154,5.50952 -36.69458,16.63867 -55,23.72925 -45.67639,17.69256 -99.0986,30.77795 -148,20.80706 -16.11926,-3.28668 -34.57455,-10.35186 -45.69986,-23.0108 -24.8522,-28.2782 -13.44977,-68.3034 19.69986,-83.98535 m 16,84 c -21.16656,-8.85913 -33.96609,-33.60583 -16.67438,-52.91052 10.49073,-11.71198 26.5683,-17.13983 41.67438,-19.49921 23.07404,-3.60388 47.26215,-0.0649 70,4.409 35.32013,6.94964 69.87946,17.56787 102,34.00073 m 350,-1 c 47.36829,-27.6474 109.64583,-41.01245 163.99993,-37.96448 21.657,1.21442 55.9194,13.73517 55.9213,39.96448 0,28.8396 -34.521,36.92932 -56.9213,39.16901 -55.2567,5.52484 -116.72881,-15.77057 -164.99993,-41.16901 m -69,-32 h 2 m -144,35 c -11.27454,7.95813 -26.34039,11.86279 -39,17.28009 -4.70227,2.01221 -11.80194,6.31805 -17,5.75385 -12.75079,-1.38392 -30.15631,-14.39722 -41,-21.03394 7.80426,-9.07977 25.29541,-13.43439 36,-18.75232 3.94849,-1.96161 9.46484,-5.86359 14,-5.63348 4.81726,0.24444 10.72443,4.03991 15,6.14196 10.68567,5.25348 21.71747,10.24225 32,16.24384 m 167,2 -37,19.11652 -17,-4.91669 -41,-17.19983 35,-16.79938 14,-4.77777 18,7.31867 32,15.25848 m -310,-2 c -13.1723,9.37769 -30.92419,14.42969 -46,20.05017 -45.8945,17.11005 -98.89319,28.50037 -147,14.94983 m 402,-34 h 2 m -72,1 h 2 m -28,35 62,-25.99841 19,6.71753 47,21.28088 c -14.59174,8.51672 -30.47827,16.18262 -46,22.84955 -5.69104,2.44446 -12.73358,7.32574 -19,7.52154 -11.45483,0.35804 -24.83728,-9.01745 -35,-13.51074 -7.78131,-3.44037 -15.51794,-7.10675 -23,-11.169 -2.76862,-1.50312 -7.38367,-3.24848 -7,-6.69135 m 745.99993,4 c -11.3308,-6.16376 -8.9469,-20.0686 2,-25.43127 13.4459,-6.58704 31.9761,0.96673 40.3618,12.44592 12.6077,17.25842 1.9896,39.47162 -15.3618,48.17517 -16.834,8.44403 -39.8458,5.59875 -55,-5.18982 -10.1514,26.47424 -39.2738,37.22021 -59,13 -16.2803,10.04669 -34.9543,20.46558 -54,9.63428 -24.8008,-14.10425 -14.7156,-48.47144 13,-49.59412 6.5763,-0.26642 13.3729,1.5603 17.5663,7.00305 5.3752,6.97669 0.071,13.70832 -7.5663,13.95679 m -479.99993,48 c 22.80762,0 44.35699,-0.79108 65,-11.78162 6.33978,-3.37536 12.05737,-7.91284 16.89581,-13.21911 2.31159,-2.5351 4.47736,-7.33069 8.1474,-8.02014 4.6745,-0.87818 12.41291,2.72241 16.95679,4.02087 11.48071,3.28064 23.30927,6.15967 35,8.55017 35.61573,7.28265 72.71833,11.73279 108.99993,8.28003 38.1631,-3.63171 77.9036,-12.92444 110,-34.85876 15.3586,-10.49592 24.8776,-30.01575 41,-37.86341 29.3673,-14.29474 86.5028,-25.52923 104,11.89197 m -477.99993,-5 h 2 m 476.99993,7 c 0,19.98199 -10.3518,35.05609 -32,36 m -700.99993,-7 35,-15.30481 17,-6.4483 19,8.50616 41,19.24695 -5,3 m 66,-3 c 13.73718,-3.75726 26.53961,-11.45337 39,-18.16431 5.3869,-2.90136 11.84393,-8.12872 18,-8.98846 5.02008,-0.70111 10.66138,3.32391 15,5.37189 10.03296,4.73584 20.52795,9.12255 31,12.78088 3.26514,1.14062 12.61304,3.22974 11.54242,8.05481 -2.17438,9.7995 -17.21112,15.37353 -25.54242,17.90582 -28.26538,8.59119 -60.25067,-0.56964 -85,-14.96063 m -646,1 c -7.56895,6.04175 -23.10742,4.72949 -22.48612,-8 0.42123,-8.63049 8.92372,-17.37427 15.48611,-22 l 8.00001,28 m 1228.99993,-28 c 8.8639,4.13354 21.9216,20.36194 12.7716,29.78625 -4.2045,4.33045 -16.4177,6.83765 -17.7778,-1.80169 -1.1129,-7.06891 5.9836,-17.8017 6.0062,-25.98456 m -69,16 c 2.2483,-4.46802 5.3058,-5.61053 10,-4 m -11,6 7,7 m -702.99993,-4 c 24.79749,39.01752 75.56012,22.40967 109,8 m -132,-1 c 12.37598,18.70959 36.22601,29.13361 58,31.84412 7.83984,0.97595 19.68353,-1.19007 26.82642,1.75927 5.05798,2.0885 9.23205,9.58863 13.17358,13.35724 7.50342,7.17432 16.7804,13.05353 26,17.78009 41.18054,21.11206 100.00891,10.77722 127,-28.74072 m -136,-9 c 15.90082,-2.14294 32.49664,-10.69208 47,-17.30865 12.80414,-5.84137 23.02167,2.07867 35,7.53936 6.80414,3.10193 13.84198,5.8772 21,8.04938 2.31226,0.70172 6.7124,1.23126 7.54242,3.99847 2.06555,6.88636 -12.93756,14.89478 -17.54242,17.40894 -21.40564,11.68701 -47.5116,12.97668 -70,3.85956 -6.50043,-2.63532 -28.63855,-13.88568 -25,-22.54706"
       id="path1" />
  </g>
</svg>
